# xmcd CD database file
#
# Track frame offsets:
#	150
#	15865
#	29658
#	42770
#	58896
#	78616
#	98522
#	122052
#	138061
#	158492
#	171802
#	186644
#	203503
#	221015
#	239258
#
# Disc length: 3360 seconds
#
# Revision: 0
# Processed by: cddbd v1.5.2PL0 Copyright (c) Steve Scherf et al.
# Submitted via: CDex 1.81
#
DISCID=c20d1e0f
DTITLE=Adam Brand - My Acoustic Diary
DYEAR=2013
DGENRE=Country
TTITLE0=Freedom Rebels
TTITLE1=Gone Fishin
TTITLE2=Dirt Track Cowboy
TTITLE3=LastMan Standing
TTITLE4=Good Things in Life
TTITLE5=New England Highway
TTITLE6=The Anzac
TTITLE7=That's Who We Are
TTITLE8=Just Drive
TTITLE9=Kinda Like It
TTITLE10=Better Than This
TTITLE11=Nothin' Like A Good Day
TTITLE12=Wondering
TTITLE13=Hell Of A Ride
TTITLE14=It's Gonna Be OK
EXTD=YEAR: 2013
EXTT0=
EXTT1=
EXTT2=
EXTT3=
EXTT4=
EXTT5=
EXTT6=
EXTT7=
EXTT8=
EXTT9=
EXTT10=
EXTT11=
EXTT12=
EXTT13=
EXTT14=
PLAYORDER=
